<svg width="28" height="29" viewBox="0 0 28 29" fill="none" xmlns="http://www.w3.org/2000/svg">
<g filter="url(#filter0_d)">
<path d="M24 5.88C23.25 6.25 22.5 6.38 21.62 6.5C22.5 6 23.12 5.25 23.37 4.25C22.5606 4.73131 21.6743 5.06959 20.75 5.25C19.9485 4.46227 18.8737 4.01446 17.75 4C15.62 4 13.75 5.88 13.75 8.13C13.75 8.5 13.75 8.75 13.88 9C12.2422 8.93823 10.6364 8.52707 9.17046 7.79408C7.70448 7.0611 6.41212 6.02321 5.38 4.75C5.00812 5.39563 4.83425 6.13634 4.88 6.88C4.89162 7.55196 5.06825 8.21077 5.39434 8.79842C5.72043 9.38608 6.18597 9.88456 6.75 10.25C6.12 10.25 5.5 10 4.87 9.75C4.87 11.75 6.25 13.38 8.12 13.75C7.75 13.88 7.37 13.88 7 13.88C6.75 13.88 6.5 13.88 6.25 13.75C6.75 15.38 8.25 16.63 10.13 16.63C8.67779 17.7963 6.8622 18.4156 5 18.38H4C5.87496 19.5591 8.03554 20.2056 10.25 20.25C17.75 20.25 21.88 14 21.88 8.62V8.12C22.7387 7.53355 23.4617 6.76969 24 5.88Z" fill="white"/>
</g>
<defs>
<filter id="filter0_d" x="-2" y="0" width="32" height="32" filterUnits="userSpaceOnUse" color-interpolation-filters="sRGB">
<feFlood flood-opacity="0" result="BackgroundImageFix"/>
<feColorMatrix in="SourceAlpha" type="matrix" values="0 0 0 0 0 0 0 0 0 0 0 0 0 0 0 0 0 0 127 0" result="hardAlpha"/>
<feOffset dy="4"/>
<feGaussianBlur stdDeviation="2"/>
<feComposite in2="hardAlpha" operator="out"/>
<feColorMatrix type="matrix" values="0 0 0 0 0 0 0 0 0 0 0 0 0 0 0 0 0 0 0.25 0"/>
<feBlend mode="normal" in2="BackgroundImageFix" result="effect1_dropShadow"/>
<feBlend mode="normal" in="SourceGraphic" in2="effect1_dropShadow" result="shape"/>
</filter>
</defs>
</svg>
